<svg id="visual" viewBox="0 0 900 600" width="900" height="600" xmlns="http://www.w3.org/2000/svg" xmlns:xlink="http://www.w3.org/1999/xlink" version="1.1"><g stroke-width="1" stroke-linejoin="bevel"><path d="M470 292L493 230L414 231Z" fill="#000000" stroke="#000000"></path><path d="M414 231L382 300L470 292Z" fill="#000000" stroke="#000000"></path><path d="M362 132L320 209L414 231Z" fill="#000000" stroke="#000000"></path><path d="M414 231L320 209L382 300Z" fill="#000000" stroke="#000000"></path><path d="M600 283L594 237L493 230Z" fill="#000000" stroke="#000000"></path><path d="M534 117L362 132L414 231Z" fill="#000000" stroke="#000000"></path><path d="M470 292L600 283L493 230Z" fill="#000000" stroke="#000000"></path><path d="M497 413L600 283L470 292Z" fill="#000000" stroke="#000000"></path><path d="M534 117L414 231L493 230Z" fill="#000000" stroke="#000000"></path><path d="M320 209L317 318L382 300Z" fill="#000000" stroke="#000000"></path><path d="M389 409L497 413L470 292Z" fill="#000000" stroke="#000000"></path><path d="M594 237L534 117L493 230Z" fill="#000000" stroke="#000000"></path><path d="M389 409L470 292L382 300Z" fill="#000000" stroke="#000000"></path><path d="M317 318L389 409L382 300Z" fill="#000000" stroke="#000000"></path><path d="M531 509L568 430L497 413Z" fill="#000000" stroke="#000000"></path><path d="M497 413L568 430L600 283Z" fill="#000000" stroke="#000000"></path><path d="M406 0L315 87L362 132Z" fill="#000000" stroke="#000000"></path><path d="M362 132L315 87L320 209Z" fill="#000000" stroke="#000000"></path><path d="M213 306L279 404L317 318Z" fill="#000000" stroke="#000000"></path><path d="M594 237L599 76L534 117Z" fill="#000000" stroke="#000000"></path><path d="M534 117L406 0L362 132Z" fill="#000000" stroke="#000000"></path><path d="M681 68L599 76L594 237Z" fill="#000000" stroke="#000000"></path><path d="M317 318L279 404L389 409Z" fill="#000000" stroke="#000000"></path><path d="M426 535L531 509L497 413Z" fill="#000000" stroke="#000000"></path><path d="M213 306L317 318L320 209Z" fill="#000000" stroke="#000000"></path><path d="M315 87L231 163L320 209Z" fill="#000000" stroke="#000000"></path><path d="M231 163L213 306L320 209Z" fill="#000000" stroke="#000000"></path><path d="M531 0L406 0L534 117Z" fill="#000000" stroke="#000000"></path><path d="M315 87L189 93L231 163Z" fill="#000000" stroke="#000000"></path><path d="M599 76L531 0L534 117Z" fill="#000000" stroke="#000000"></path><path d="M723 386L718 269L600 283Z" fill="#000000" stroke="#000000"></path><path d="M600 283L718 269L594 237Z" fill="#000000" stroke="#000000"></path><path d="M718 269L721 231L594 237Z" fill="#000000" stroke="#000000"></path><path d="M426 535L497 413L389 409Z" fill="#000000" stroke="#000000"></path><path d="M568 430L723 386L600 283Z" fill="#000000" stroke="#000000"></path><path d="M202 466L333 493L279 404Z" fill="#000000" stroke="#000000"></path><path d="M279 404L333 493L389 409Z" fill="#000000" stroke="#000000"></path><path d="M531 509L603 487L568 430Z" fill="#000000" stroke="#000000"></path><path d="M333 493L426 535L389 409Z" fill="#000000" stroke="#000000"></path><path d="M213 306L211 412L279 404Z" fill="#000000" stroke="#000000"></path><path d="M721 231L681 68L594 237Z" fill="#000000" stroke="#000000"></path><path d="M599 76L610 0L531 0Z" fill="#000000" stroke="#000000"></path><path d="M681 68L610 0L599 76Z" fill="#000000" stroke="#000000"></path><path d="M603 487L723 386L568 430Z" fill="#000000" stroke="#000000"></path><path d="M718 269L762 317L721 231Z" fill="#000000" stroke="#000000"></path><path d="M406 0L281 0L315 87Z" fill="#000000" stroke="#000000"></path><path d="M281 0L189 93L315 87Z" fill="#000000" stroke="#000000"></path><path d="M76 208L101 335L213 306Z" fill="#000000" stroke="#000000"></path><path d="M93 373L202 466L211 412Z" fill="#000000" stroke="#000000"></path><path d="M723 386L762 317L718 269Z" fill="#000000" stroke="#000000"></path><path d="M721 231L791 129L681 68Z" fill="#000000" stroke="#000000"></path><path d="M211 412L202 466L279 404Z" fill="#000000" stroke="#000000"></path><path d="M333 493L414 600L426 535Z" fill="#000000" stroke="#000000"></path><path d="M101 335L211 412L213 306Z" fill="#000000" stroke="#000000"></path><path d="M764 0L671 0L681 68Z" fill="#000000" stroke="#000000"></path><path d="M681 68L671 0L610 0Z" fill="#000000" stroke="#000000"></path><path d="M603 487L700 490L723 386Z" fill="#000000" stroke="#000000"></path><path d="M723 386L824 425L762 317Z" fill="#000000" stroke="#000000"></path><path d="M717 600L700 490L603 487Z" fill="#000000" stroke="#000000"></path><path d="M568 600L603 487L531 509Z" fill="#000000" stroke="#000000"></path><path d="M281 0L208 0L189 93Z" fill="#000000" stroke="#000000"></path><path d="M275 600L414 600L333 493Z" fill="#000000" stroke="#000000"></path><path d="M426 535L494 600L531 509Z" fill="#000000" stroke="#000000"></path><path d="M414 600L494 600L426 535Z" fill="#000000" stroke="#000000"></path><path d="M808 162L791 129L721 231Z" fill="#000000" stroke="#000000"></path><path d="M76 208L231 163L189 93Z" fill="#000000" stroke="#000000"></path><path d="M76 208L213 306L231 163Z" fill="#000000" stroke="#000000"></path><path d="M762 317L808 162L721 231Z" fill="#000000" stroke="#000000"></path><path d="M494 600L568 600L531 509Z" fill="#000000" stroke="#000000"></path><path d="M82 94L76 208L189 93Z" fill="#000000" stroke="#000000"></path><path d="M0 333L93 373L101 335Z" fill="#000000" stroke="#000000"></path><path d="M101 335L93 373L211 412Z" fill="#000000" stroke="#000000"></path><path d="M190 600L275 600L202 466Z" fill="#000000" stroke="#000000"></path><path d="M202 466L275 600L333 493Z" fill="#000000" stroke="#000000"></path><path d="M900 0L764 0L791 129Z" fill="#000000" stroke="#000000"></path><path d="M791 129L764 0L681 68Z" fill="#000000" stroke="#000000"></path><path d="M75 0L82 94L189 93Z" fill="#000000" stroke="#000000"></path><path d="M809 530L824 425L700 490Z" fill="#000000" stroke="#000000"></path><path d="M700 490L824 425L723 386Z" fill="#000000" stroke="#000000"></path><path d="M762 317L900 193L808 162Z" fill="#000000" stroke="#000000"></path><path d="M568 600L717 600L603 487Z" fill="#000000" stroke="#000000"></path><path d="M111 537L190 600L202 466Z" fill="#000000" stroke="#000000"></path><path d="M93 373L111 537L202 466Z" fill="#000000" stroke="#000000"></path><path d="M900 330L900 193L762 317Z" fill="#000000" stroke="#000000"></path><path d="M808 162L900 129L791 129Z" fill="#000000" stroke="#000000"></path><path d="M717 600L809 530L700 490Z" fill="#000000" stroke="#000000"></path><path d="M824 425L900 330L762 317Z" fill="#000000" stroke="#000000"></path><path d="M900 404L900 330L824 425Z" fill="#000000" stroke="#000000"></path><path d="M208 0L75 0L189 93Z" fill="#000000" stroke="#000000"></path><path d="M0 136L0 208L76 208Z" fill="#000000" stroke="#000000"></path><path d="M0 136L76 208L82 94Z" fill="#000000" stroke="#000000"></path><path d="M76 208L0 333L101 335Z" fill="#000000" stroke="#000000"></path><path d="M93 373L0 529L111 537Z" fill="#000000" stroke="#000000"></path><path d="M0 208L0 333L76 208Z" fill="#000000" stroke="#000000"></path><path d="M900 193L900 129L808 162Z" fill="#000000" stroke="#000000"></path><path d="M0 333L0 365L93 373Z" fill="#000000" stroke="#000000"></path><path d="M0 0L0 136L82 94Z" fill="#000000" stroke="#000000"></path><path d="M900 480L900 404L824 425Z" fill="#000000" stroke="#000000"></path><path d="M900 600L900 480L809 530Z" fill="#000000" stroke="#000000"></path><path d="M809 530L900 480L824 425Z" fill="#000000" stroke="#000000"></path><path d="M0 529L82 600L111 537Z" fill="#000000" stroke="#000000"></path><path d="M111 537L82 600L190 600Z" fill="#000000" stroke="#000000"></path><path d="M900 129L900 0L791 129Z" fill="#000000" stroke="#000000"></path><path d="M717 600L832 600L809 530Z" fill="#000000" stroke="#000000"></path><path d="M75 0L0 0L82 94Z" fill="#000000" stroke="#000000"></path><path d="M0 365L0 529L93 373Z" fill="#000000" stroke="#000000"></path><path d="M832 600L900 600L809 530Z" fill="#000000" stroke="#000000"></path><path d="M0 529L0 600L82 600Z" fill="#000000" stroke="#000000"></path></g></svg>