<svg id="visual" viewBox="0 0 900 600" width="900" height="600" xmlns="http://www.w3.org/2000/svg" xmlns:xlink="http://www.w3.org/1999/xlink" version="1.1"><g stroke-width="1" stroke-linejoin="bevel"><path d="M520.3 349L628.9 360L531.3 229Z" fill="#000302" stroke="#000302"></path><path d="M628.9 360L648.9 236L531.3 229Z" fill="#0d100f" stroke="#0d100f"></path><path d="M648.9 236L652.9 144L531.3 229Z" fill="#030706" stroke="#030706"></path><path d="M628.9 360L764.4 251L648.9 236Z" fill="#000302" stroke="#000302"></path><path d="M648.9 236L755.4 139L652.9 144Z" fill="#080c0b" stroke="#080c0b"></path><path d="M530.3 497L650.9 482L628.9 360Z" fill="#0a0d0c" stroke="#0a0d0c"></path><path d="M628.9 360L776.4 377L764.4 251Z" fill="#030706" stroke="#030706"></path><path d="M361.7 241L395.7 380L520.3 349Z" fill="#070b0a" stroke="#070b0a"></path><path d="M520.3 349L530.3 497L628.9 360Z" fill="#000302" stroke="#000302"></path><path d="M652.9 144L517.3 100L531.3 229Z" fill="#000302" stroke="#000302"></path><path d="M531.3 229L361.7 241L520.3 349Z" fill="#0c0f0e" stroke="#0c0f0e"></path><path d="M395.7 473L530.3 497L520.3 349Z" fill="#000403" stroke="#000403"></path><path d="M650.9 482L776.4 377L628.9 360Z" fill="#080c0b" stroke="#080c0b"></path><path d="M373.7 137L361.7 241L531.3 229Z" fill="#020605" stroke="#020605"></path><path d="M764.4 251L755.4 139L648.9 236Z" fill="#020605" stroke="#020605"></path><path d="M652.9 144L617.9 0L517.3 100Z" fill="#0c0f0e" stroke="#0c0f0e"></path><path d="M900 244L755.4 139L764.4 251Z" fill="#0d100f" stroke="#0d100f"></path><path d="M242.1 467L395.7 473L395.7 380Z" fill="#000000" stroke="#000000"></path><path d="M395.7 380L395.7 473L520.3 349Z" fill="#080c0b" stroke="#080c0b"></path><path d="M517.3 100L373.7 137L531.3 229Z" fill="#0c0f0e" stroke="#0c0f0e"></path><path d="M650.9 482L785.4 501L776.4 377Z" fill="#000000" stroke="#000000"></path><path d="M775.4 600L785.4 501L650.9 482Z" fill="#0c0f0e" stroke="#0c0f0e"></path><path d="M742.4 0L617.9 0L652.9 144Z" fill="#000000" stroke="#000000"></path><path d="M517.3 100L386.7 0L373.7 137Z" fill="#000000" stroke="#000000"></path><path d="M617.9 0L526.3 0L517.3 100Z" fill="#020605" stroke="#020605"></path><path d="M361.7 241L279.1 333L395.7 380Z" fill="#000302" stroke="#000302"></path><path d="M285.1 213L279.1 333L361.7 241Z" fill="#000000" stroke="#000000"></path><path d="M282.1 147L285.1 213L373.7 137Z" fill="#0a0d0c" stroke="#0a0d0c"></path><path d="M373.7 137L285.1 213L361.7 241Z" fill="#050908" stroke="#050908"></path><path d="M486.3 600L615.9 600L530.3 497Z" fill="#070b0a" stroke="#070b0a"></path><path d="M530.3 497L615.9 600L650.9 482Z" fill="#000403" stroke="#000403"></path><path d="M395.7 473L486.3 600L530.3 497Z" fill="#000403" stroke="#000403"></path><path d="M367.7 600L486.3 600L395.7 473Z" fill="#0a0d0c" stroke="#0a0d0c"></path><path d="M900 353L764.4 251L776.4 377Z" fill="#000302" stroke="#000302"></path><path d="M900 353L900 244L764.4 251Z" fill="#070b0a" stroke="#070b0a"></path><path d="M755.4 139L742.4 0L652.9 144Z" fill="#050908" stroke="#050908"></path><path d="M900 453L900 353L776.4 377Z" fill="#0a0d0c" stroke="#0a0d0c"></path><path d="M284.1 0L282.1 147L373.7 137Z" fill="#050908" stroke="#050908"></path><path d="M104.6 387L242.1 467L279.1 333Z" fill="#000000" stroke="#000000"></path><path d="M900 107L742.4 0L755.4 139Z" fill="#050908" stroke="#050908"></path><path d="M526.3 0L386.7 0L517.3 100Z" fill="#050908" stroke="#050908"></path><path d="M900 600L900 453L785.4 501Z" fill="#0d100f" stroke="#0d100f"></path><path d="M785.4 501L900 453L776.4 377Z" fill="#0a0d0c" stroke="#0a0d0c"></path><path d="M615.9 600L775.4 600L650.9 482Z" fill="#0c0f0e" stroke="#0c0f0e"></path><path d="M900 244L900 107L755.4 139Z" fill="#0c0f0e" stroke="#0c0f0e"></path><path d="M280.1 600L367.7 600L395.7 473Z" fill="#0d100f" stroke="#0d100f"></path><path d="M146.6 261L279.1 333L285.1 213Z" fill="#0d100f" stroke="#0d100f"></path><path d="M279.1 333L242.1 467L395.7 380Z" fill="#000000" stroke="#000000"></path><path d="M386.7 0L284.1 0L373.7 137Z" fill="#0d100f" stroke="#0d100f"></path><path d="M121.6 136L146.6 261L285.1 213Z" fill="#080c0b" stroke="#080c0b"></path><path d="M242.1 467L280.1 600L395.7 473Z" fill="#030706" stroke="#030706"></path><path d="M900 107L900 0L742.4 0Z" fill="#080c0b" stroke="#080c0b"></path><path d="M121.6 136L285.1 213L282.1 147Z" fill="#070b0a" stroke="#070b0a"></path><path d="M242.1 467L144.6 600L280.1 600Z" fill="#070b0a" stroke="#070b0a"></path><path d="M775.4 600L900 600L785.4 501Z" fill="#0c0f0e" stroke="#0c0f0e"></path><path d="M146.6 261L104.6 387L279.1 333Z" fill="#000403" stroke="#000403"></path><path d="M284.1 0L121.6 136L282.1 147Z" fill="#0a0d0c" stroke="#0a0d0c"></path><path d="M146.6 261L0 331L104.6 387Z" fill="#0a0d0c" stroke="#0a0d0c"></path><path d="M104.6 387L134.6 494L242.1 467Z" fill="#0a0d0c" stroke="#0a0d0c"></path><path d="M0 600L144.6 600L134.6 494Z" fill="#0c0f0e" stroke="#0c0f0e"></path><path d="M134.6 494L144.6 600L242.1 467Z" fill="#0c0f0e" stroke="#0c0f0e"></path><path d="M284.1 0L103.6 0L121.6 136Z" fill="#080c0b" stroke="#080c0b"></path><path d="M0 228L0 331L146.6 261Z" fill="#070b0a" stroke="#070b0a"></path><path d="M0 228L146.6 261L121.6 136Z" fill="#050908" stroke="#050908"></path><path d="M104.6 387L0 483L134.6 494Z" fill="#0d100f" stroke="#0d100f"></path><path d="M0 141L0 228L121.6 136Z" fill="#0a0d0c" stroke="#0a0d0c"></path><path d="M103.6 0L0 141L121.6 136Z" fill="#0d100f" stroke="#0d100f"></path><path d="M0 331L0 483L104.6 387Z" fill="#020605" stroke="#020605"></path><path d="M103.6 0L0 0L0 141Z" fill="#070b0a" stroke="#070b0a"></path><path d="M0 483L0 600L134.6 494Z" fill="#0c0f0e" stroke="#0c0f0e"></path></g></svg>